<?xml version="1.0" encoding="UTF-8"?>
<svg version="1.1" xmlns="http://www.w3.org/2000/svg" width="143" height="142">
<path d="M0 0 C47.19 0 94.38 0 143 0 C143 46.86 143 93.72 143 142 C95.81 142 48.62 142 0 142 C0 95.14 0 48.28 0 0 Z " fill="#1E1E1E" transform="translate(0,0)"/>
<path d="M0 0 C2.64 0 5.28 0 8 0 C15.2325112 12.79461441 22.1533748 25.74754449 29.02124023 38.74023438 C32.61307871 45.53180906 36.21960481 52.31072757 40 59 C44.38345838 51.91077536 48.33151343 44.6690628 52.125 37.25 C57.91081319 26.02124285 63.89142055 14.91075935 69.99121094 3.84985352 C70.68421901 2.57905919 71.35267035 1.29465931 72 0 C74.31 0 76.62 0 79 0 C83.02562053 27.41758148 83.02562053 27.41758148 84.34887695 40.23022461 C84.85697285 45.03917266 85.62698774 49.73968232 86.56640625 54.48046875 C87.04074402 57.23675581 87.28495827 59.96200278 87.5 62.75 C87.84256864 67.09127898 88.62460165 70.87380494 90 75 C85.71 75 81.42 75 77 75 C76.77213542 71.64713542 76.54427083 68.29427083 76.31640625 64.94140625 C76.32343886 62.11429756 76.32343886 62.11429756 75 61 C74.27132165 56.94212388 73.75842068 52.85289085 73.21557617 48.76635742 C72.94357122 46.7328876 72.65880324 44.70149816 72.37304688 42.66992188 C71.29113905 34.74164015 70.73707538 27.00365156 71 19 C70.34 19 69.68 19 69 19 C68.73823975 19.68956787 68.47647949 20.37913574 68.20678711 21.08959961 C66.85728149 24.34419327 65.30469396 27.43392642 63.69140625 30.56640625 C63.36845078 31.19412933 63.0454953 31.82185242 62.7127533 32.46859741 C61.66543323 34.50133871 60.61426376 36.53205477 59.5625 38.5625 C59.20639648 39.25175568 58.85029297 39.94101135 58.48339844 40.65115356 C52.51076833 52.20649269 46.3665586 63.65619537 40 75 C37.66821289 74.7722168 37.66821289 74.7722168 35 74 C33.52124023 72.12426758 33.52124023 72.12426758 32.30859375 69.64453125 C31.84461182 68.72236816 31.38062988 67.80020508 30.90258789 66.85009766 C30.41910889 65.84769043 29.93562988 64.8452832 29.4375 63.8125 C28.38487241 61.71120642 27.33012718 59.61097254 26.2734375 57.51171875 C25.73557617 56.43325684 25.19771484 55.35479492 24.64355469 54.24365234 C22.05948996 49.14384784 19.31736297 44.13403812 16.5625 39.125 C16.079021 38.24175049 15.59554199 37.35850098 15.09741211 36.44848633 C12.08628479 30.95379332 9.04856659 25.4739959 6 20 C4.35629371 26.86656524 3.29551995 33.68260695 2.4375 40.6875 C2.18715719 42.69152632 1.93588275 44.69543651 1.68359375 46.69921875 C1.56669189 47.63282227 1.44979004 48.56642578 1.3293457 49.52832031 C1.07869773 51.40938782 0.77417887 53.28336374 0.4453125 55.15234375 C-0.1640446 59.04902204 -0.35903198 62.93906119 -0.5625 66.875 C-0.60568359 67.65875 -0.64886719 68.4425 -0.69335938 69.25 C-0.79853351 71.16650649 -0.89967925 73.08323333 -1 75 C-4.3 75 -7.6 75 -11 75 C-9.25224071 63.54703619 -9.25224071 63.54703619 -8.33984375 57.890625 C-6.32800108 45.3871711 -4.54333204 32.85757912 -2.8125 20.3125 C-2.5372724 18.32745135 -2.26188254 16.34242519 -1.98632812 14.35742188 C-1.32235744 9.57187047 -0.66055025 4.78602468 0 0 Z " fill="#78E9D8" transform="translate(30,28)"/>
</svg>
